<?xml version="1.0" encoding="UTF-8" standalone="no"?>
<!DOCTYPE svg PUBLIC "-//W3C//DTD SVG 1.1//EN"
 "http://www.w3.org/Graphics/SVG/1.1/DTD/svg11.dtd">
<!-- Generated by graphviz version 6.0.2 (20221011.1828)
 -->
<!-- Title: pipeline_dag Pages: 1 -->
<svg width="756pt" height="259pt"
 viewBox="0.00 0.00 755.60 258.80" xmlns="http://www.w3.org/2000/svg" xmlns:xlink="http://www.w3.org/1999/xlink">
<g id="graph0" class="graph" transform="scale(1 1) rotate(0) translate(4 254.8)">
<title>pipeline_dag</title>
<polygon fill="white" stroke="none" points="-4,4 -4,-254.8 751.6,-254.8 751.6,4 -4,4"/>
<!-- p0 -->
<g id="node1" class="node">
<title>p0</title>
<ellipse fill="black" stroke="black" cx="103.6" cy="-232.2" rx="3.6" ry="3.6"/>
<text text-anchor="middle" x="50" y="-239.6" font-family="Times,serif" font-size="14.00">Channel.fromPath</text>
</g>
<!-- p6 -->
<g id="node2" class="node">
<title>p6</title>
<ellipse fill="none" stroke="black" cx="326.6" cy="-159.6" rx="92.08" ry="18"/>
<text text-anchor="middle" x="326.6" y="-155.9" font-family="Times,serif" font-size="14.00">peak_detection_msdial</text>
</g>
<!-- p0&#45;&gt;p6 -->
<g id="edge1" class="edge">
<title>p0&#45;&gt;p6</title>
<path fill="none" stroke="black" d="M104.82,-228.41C107.97,-221.56 117.1,-203.86 130.6,-195.6 148.69,-184.53 194.46,-176.03 237.22,-170.18"/>
<polygon fill="black" stroke="black" points="237.69,-173.65 247.14,-168.86 236.77,-166.71 237.69,-173.65"/>
<text text-anchor="middle" x="164.1" y="-199.4" font-family="Times,serif" font-size="14.00">DATA_DIR</text>
</g>
<!-- p9 -->
<g id="node5" class="node">
<title>p9</title>
<ellipse fill="none" stroke="black" cx="508.6" cy="-72.6" rx="73.39" ry="18"/>
<text text-anchor="middle" x="508.6" y="-68.9" font-family="Times,serif" font-size="14.00">msflo_processing</text>
</g>
<!-- p6&#45;&gt;p9 -->
<g id="edge7" class="edge">
<title>p6&#45;&gt;p9</title>
<path fill="none" stroke="black" d="M345.35,-141.81C358.18,-131.06 375.99,-117.51 393.6,-108.6 410.18,-100.22 429.13,-93.43 446.8,-88.15"/>
<polygon fill="black" stroke="black" points="447.82,-91.49 456.47,-85.36 445.89,-84.77 447.82,-91.49"/>
<text text-anchor="middle" x="449.1" y="-112.4" font-family="Times,serif" font-size="14.00">MSDIAL_RESULT</text>
</g>
<!-- p7 -->
<g id="node9" class="node">
<title>p7</title>
<ellipse fill="black" stroke="black" cx="277.6" cy="-72.6" rx="1.8" ry="1.8"/>
</g>
<!-- p6&#45;&gt;p7 -->
<g id="edge8" class="edge">
<title>p6&#45;&gt;p7</title>
<path fill="none" stroke="black" d="M295.64,-142.47C288.84,-137.39 282.51,-131.1 278.6,-123.6 272.28,-111.47 273.36,-95.34 275.12,-84.72"/>
<polygon fill="black" stroke="black" points="278.55,-85.45 277.22,-74.94 271.7,-83.98 278.55,-85.45"/>
<text text-anchor="middle" x="315.6" y="-112.4" font-family="Times,serif" font-size="14.00">msdial_result</text>
</g>
<!-- p1 -->
<g id="node3" class="node">
<title>p1</title>
<ellipse fill="black" stroke="black" cx="193.6" cy="-232.2" rx="3.6" ry="3.6"/>
<text text-anchor="middle" x="140" y="-217.4" font-family="Times,serif" font-size="14.00">Channel.fromPath</text>
</g>
<!-- p1&#45;&gt;p6 -->
<g id="edge2" class="edge">
<title>p1&#45;&gt;p6</title>
<path fill="none" stroke="black" d="M194.27,-228.52C196.05,-221.9 201.57,-204.69 212.6,-195.6 223.27,-186.81 236.13,-180.22 249.32,-175.29"/>
<polygon fill="black" stroke="black" points="250.63,-178.54 258.95,-171.98 248.35,-171.92 250.63,-178.54"/>
<text text-anchor="middle" x="267.6" y="-199.4" font-family="Times,serif" font-size="14.00">MSDIAL_CONFIG</text>
</g>
<!-- p2 -->
<g id="node4" class="node">
<title>p2</title>
<ellipse fill="black" stroke="black" cx="508.6" cy="-159.6" rx="3.6" ry="3.6"/>
<text text-anchor="middle" x="510.4" y="-144.8" font-family="Times,serif" font-size="14.00">Channel.fromPath</text>
</g>
<!-- p2&#45;&gt;p9 -->
<g id="edge3" class="edge">
<title>p2&#45;&gt;p9</title>
<path fill="none" stroke="black" d="M508.6,-155.77C508.6,-147.28 508.6,-121.35 508.6,-100.87"/>
<polygon fill="black" stroke="black" points="512.1,-100.77 508.6,-90.77 505.1,-100.77 512.1,-100.77"/>
<text text-anchor="middle" x="560.1" y="-112.4" font-family="Times,serif" font-size="14.00">MSFLO_CONFIG</text>
</g>
<!-- p11 -->
<g id="node11" class="node">
<title>p11</title>
<ellipse fill="black" stroke="black" cx="444.6" cy="-1.8" rx="1.8" ry="1.8"/>
</g>
<!-- p9&#45;&gt;p11 -->
<g id="edge10" class="edge">
<title>p9&#45;&gt;p11</title>
<path fill="none" stroke="black" d="M465.55,-57.83C456.05,-52.7 447.18,-45.8 441.6,-36.6 437.38,-29.63 438.59,-20.33 440.6,-13.25"/>
<polygon fill="black" stroke="black" points="443.94,-14.32 444.15,-3.72 437.38,-11.87 443.94,-14.32"/>
<text text-anchor="middle" x="493.6" y="-25.4" font-family="Times,serif" font-size="14.00">MSFLO_RESULT</text>
</g>
<!-- p10 -->
<g id="node12" class="node">
<title>p10</title>
<ellipse fill="black" stroke="black" cx="571.6" cy="-1.8" rx="1.8" ry="1.8"/>
</g>
<!-- p9&#45;&gt;p10 -->
<g id="edge11" class="edge">
<title>p9&#45;&gt;p10</title>
<path fill="none" stroke="black" d="M530.1,-55.23C536.73,-49.69 543.8,-43.21 549.6,-36.6 556.15,-29.14 562.19,-19.58 566.28,-12.53"/>
<polygon fill="black" stroke="black" points="569.38,-14.15 571.14,-3.7 563.25,-10.77 569.38,-14.15"/>
<text text-anchor="middle" x="594.1" y="-25.4" font-family="Times,serif" font-size="14.00">msflo_result</text>
</g>
<!-- p3 -->
<g id="node6" class="node">
<title>p3</title>
<ellipse fill="black" stroke="black" cx="326.6" cy="-232.2" rx="3.6" ry="3.6"/>
<text text-anchor="middle" x="273" y="-239.6" font-family="Times,serif" font-size="14.00">Channel.fromPath</text>
</g>
<!-- p3&#45;&gt;p6 -->
<g id="edge4" class="edge">
<title>p3&#45;&gt;p6</title>
<path fill="none" stroke="black" d="M326.6,-228.52C326.6,-221.85 326.6,-203.9 326.6,-188.13"/>
<polygon fill="black" stroke="black" points="330.1,-187.73 326.6,-177.73 323.1,-187.73 330.1,-187.73"/>
<text text-anchor="middle" x="373.6" y="-199.4" font-family="Times,serif" font-size="14.00">MS1_LIBRARY</text>
</g>
<!-- p4 -->
<g id="node7" class="node">
<title>p4</title>
<ellipse fill="black" stroke="black" cx="443.6" cy="-232.2" rx="3.6" ry="3.6"/>
<text text-anchor="middle" x="390" y="-239.6" font-family="Times,serif" font-size="14.00">Channel.fromPath</text>
</g>
<!-- p4&#45;&gt;p6 -->
<g id="edge5" class="edge">
<title>p4&#45;&gt;p6</title>
<path fill="none" stroke="black" d="M442.67,-228.55C440.23,-222.02 433.08,-204.98 421.6,-195.6 412.76,-188.37 402.28,-182.56 391.58,-177.91"/>
<polygon fill="black" stroke="black" points="392.73,-174.6 382.14,-174.12 390.12,-181.1 392.73,-174.6"/>
<text text-anchor="middle" x="481.6" y="-199.4" font-family="Times,serif" font-size="14.00">MS2_LIBRARY</text>
</g>
<!-- p5 -->
<g id="node8" class="node">
<title>p5</title>
<ellipse fill="black" stroke="black" cx="560.6" cy="-232.2" rx="3.6" ry="3.6"/>
<text text-anchor="middle" x="507" y="-239.6" font-family="Times,serif" font-size="14.00">Channel.fromPath</text>
</g>
<!-- p5&#45;&gt;p6 -->
<g id="edge6" class="edge">
<title>p5&#45;&gt;p6</title>
<path fill="none" stroke="black" d="M559.31,-228.4C555.98,-221.54 546.39,-203.8 532.6,-195.6 513.06,-183.99 463.3,-175.36 417.58,-169.57"/>
<polygon fill="black" stroke="black" points="417.94,-166.09 407.59,-168.34 417.09,-173.04 417.94,-166.09"/>
<text text-anchor="middle" x="560.1" y="-199.4" font-family="Times,serif" font-size="14.00">REF</text>
</g>
<!-- p8 -->
<g id="node10" class="node">
<title>p8</title>
<ellipse fill="none" stroke="black" cx="634.6" cy="-159.6" rx="70.39" ry="18"/>
<text text-anchor="middle" x="634.6" y="-155.9" font-family="Times,serif" font-size="14.00">msflo_download</text>
</g>
<!-- p8&#45;&gt;p9 -->
<g id="edge9" class="edge">
<title>p8&#45;&gt;p9</title>
<path fill="none" stroke="black" d="M630.76,-141.2C627.57,-130.47 621.98,-117.17 612.6,-108.6 602.25,-99.14 589.24,-92.22 575.98,-87.17"/>
<polygon fill="black" stroke="black" points="576.9,-83.79 566.3,-83.82 574.6,-90.4 576.9,-83.79"/>
<text text-anchor="middle" x="685.1" y="-112.4" font-family="Times,serif" font-size="14.00">MSFLO_SOFTWARE</text>
</g>
</g>
</svg>
